<?xml version="1.0" encoding="utf-8"?>
<!-- Generator: Adobe Illustrator 22.0.1, SVG Export Plug-In . SVG Version: 6.00 Build 0)  -->
<svg version="1.1" id="Layer_1" xmlns="http://www.w3.org/2000/svg" xmlns:xlink="http://www.w3.org/1999/xlink" x="0px" y="0px"
	 viewBox="0 0 35 35" style="enable-background:new 0 0 35 35;" xml:space="preserve">
<style type="text/css">
	.st0{fill:#FFFFFF;}
</style>
<path class="st0" d="M17.5,0C7.8,0,0,7.8,0,17.5S7.8,35,17.5,35S35,27.2,35,17.5S27.2,0,17.5,0z M22.9,17.4h-3.3v12.3h-5V17.4h-2.7
	v-4.2h2.7c0-1.3,0-2.4,0-3.5c0-3.3,2.6-4.3,4.9-4.3h3.9h0v4.2c-0.3,0-1.6,0-2.2,0c-0.1,0-1.5-0.1-1.5,1.2c0,0.5,0,2.4,0,2.4h3.7
	L22.9,17.4z"/>
</svg>
