<?xml version="1.0" encoding="utf-8"?>
<!-- Generator: Adobe Illustrator 22.0.1, SVG Export Plug-In . SVG Version: 6.00 Build 0)  -->
<svg version="1.1" id="Layer_1" xmlns="http://www.w3.org/2000/svg" xmlns:xlink="http://www.w3.org/1999/xlink" x="0px" y="0px"
	 viewBox="0 0 35 35" style="enable-background:new 0 0 35 35;" xml:space="preserve">
<style type="text/css">
	.st0{fill:#FFFFFF;}
</style>
<g>
	<path class="st0" d="M25.8,11.2c-0.2-0.5-0.4-0.9-0.8-1.2c-0.4-0.4-0.7-0.6-1.2-0.8c-0.4-0.1-0.9-0.3-2-0.4
		c-1.1-0.1-1.5-0.1-4.3-0.1c-2.8,0-3.2,0-4.3,0.1c-1,0-1.6,0.2-2,0.4C10.7,9.4,10.4,9.6,10,10c-0.4,0.4-0.6,0.7-0.8,1.2
		c-0.1,0.4-0.3,0.9-0.4,2c-0.1,1.1-0.1,1.5-0.1,4.3c0,2.8,0,3.2,0.1,4.3c0,1,0.2,1.6,0.4,2c0.2,0.5,0.4,0.9,0.8,1.2
		c0.4,0.4,0.7,0.6,1.2,0.8c0.4,0.1,0.9,0.3,2,0.4v0c1.1,0.1,1.5,0.1,4.3,0.1c2.8,0,3.2,0,4.3-0.1c1,0,1.6-0.2,2-0.4
		c0.5-0.2,0.9-0.4,1.2-0.8c0.4-0.4,0.6-0.7,0.8-1.2c0.1-0.4,0.3-0.9,0.4-2c0.1-1.1,0.1-1.5,0.1-4.3c0-2.8,0-3.2-0.1-4.3
		C26.1,12.2,26,11.6,25.8,11.2z M17.5,23c-3,0-5.5-2.4-5.5-5.5h0c0-3,2.4-5.5,5.5-5.5c3,0,5.5,2.4,5.5,5.5S20.5,23,17.5,23z
		 M23.2,13.1c-0.7,0-1.3-0.6-1.3-1.3c0-0.7,0.6-1.3,1.3-1.3h0c0.7,0,1.3,0.6,1.3,1.3C24.5,12.5,23.9,13.1,23.2,13.1z"/>
	<path class="st0" d="M17.5,13.9c-2,0-3.6,1.6-3.6,3.6c0,2,1.6,3.6,3.6,3.6c2,0,3.6-1.6,3.6-3.6C21.1,15.5,19.5,13.9,17.5,13.9z"/>
	<path class="st0" d="M17.5,0C7.8,0,0,7.8,0,17.5S7.8,35,17.5,35S35,27.2,35,17.5S27.2,0,17.5,0z M28.1,21.9
		c-0.1,1.1-0.2,1.9-0.5,2.6c-0.3,0.7-0.6,1.3-1.2,1.9c-0.6,0.6-1.2,1-1.9,1.2c-0.7,0.3-1.5,0.4-2.6,0.5c-1.1,0.1-1.5,0.1-4.4,0.1
		c-2.9,0-3.3,0-4.4-0.1c-1.1-0.1-1.9-0.2-2.6-0.5c-0.7-0.3-1.3-0.6-1.9-1.2c-0.6-0.6-1-1.2-1.2-1.9C7.1,23.8,7,23,6.9,21.9
		c-0.1-1.1-0.1-1.5-0.1-4.4c0-2.9,0-3.3,0.1-4.4C7,12,7.1,11.2,7.4,10.5C7.7,9.8,8,9.2,8.6,8.6c0.6-0.6,1.2-1,1.9-1.2
		C11.2,7.1,12,7,13.1,6.9h0c1.1-0.1,1.5-0.1,4.4-0.1c2.9,0,3.3,0,4.4,0.1C23,7,23.8,7.1,24.5,7.4c0.7,0.3,1.3,0.6,1.9,1.2
		c0.6,0.6,1,1.2,1.2,1.9c0.3,0.7,0.4,1.5,0.5,2.6c0.1,1.1,0.1,1.5,0.1,4.4C28.2,20.4,28.1,20.8,28.1,21.9z"/>
</g>
</svg>
