<?xml version="1.0" encoding="utf-8"?>
<!-- Generator: Adobe Illustrator 22.0.1, SVG Export Plug-In . SVG Version: 6.00 Build 0)  -->
<svg version="1.1" id="Layer_1" xmlns="http://www.w3.org/2000/svg" xmlns:xlink="http://www.w3.org/1999/xlink" x="0px" y="0px"
	 viewBox="0 0 35 35" style="enable-background:new 0 0 35 35;" xml:space="preserve">
<style type="text/css">
	.st0{fill:#FFFFFF;}
</style>
<path class="st0" d="M17.5,0C7.8,0,0,7.8,0,17.5S7.8,35,17.5,35S35,27.2,35,17.5S27.2,0,17.5,0z M28.2,10.9L28.2,10.9L28.2,10.9
	L28.2,10.9L28.2,10.9L28.2,10.9L28.2,10.9L28.2,10.9L28.2,10.9L28.2,10.9L28.2,10.9L28.2,10.9L28.2,10.9L28.2,10.9L28.2,10.9
	L28.2,10.9c-0.1,0.1-0.2,0.2-0.3,0.4c-0.2,0.2-0.2,0.3-0.3,0.3c0,0,0,0-0.1,0.1c0,0-0.2,0.2-0.4,0.4c-0.2,0.2-0.5,0.5-0.7,0.7
	C26.1,13,26,13.3,26,13.6c0,0.3,0,0.6,0,1c0,0.4-0.1,0.7-0.1,1.2c-0.1,0.4-0.2,0.9-0.3,1.4c-0.1,0.5-0.3,1-0.5,1.5
	c-0.2,0.5-0.4,0.9-0.7,1.3c-0.2,0.4-0.4,0.7-0.6,1c-0.2,0.3-0.4,0.5-0.6,0.8c-0.2,0.2-0.4,0.5-0.8,0.8c-0.3,0.3-0.5,0.5-0.5,0.5
	c0,0-0.2,0.1-0.4,0.3c-0.2,0.2-0.5,0.4-0.7,0.5c-0.3,0.2-0.5,0.3-0.7,0.5c-0.2,0.1-0.5,0.3-0.8,0.4c-0.3,0.2-0.6,0.3-1,0.4
	s-0.7,0.3-1.1,0.4c-0.4,0.1-0.8,0.2-1.1,0.3c-0.4,0.1-0.8,0.1-1.2,0.2l-0.7,0.1v0h-1.2v0l-0.2,0c-0.1,0-0.2,0-0.3,0
	c-0.1,0-0.3,0-0.8-0.1c-0.5-0.1-0.8-0.1-1.1-0.2c-0.3-0.1-0.7-0.2-1.2-0.4c-0.5-0.2-1-0.4-1.3-0.5c-0.4-0.2-0.6-0.3-0.7-0.3
	c-0.1,0-0.2-0.1-0.3-0.2l-0.2-0.1l0,0l0,0l0,0l0,0l0,0l0,0l0,0l0,0l0,0l0,0l0,0l0,0h0v0l0,0l0,0l0.1,0c0.1,0,0.2,0,0.5,0
	c0.3,0,0.5,0,0.8,0c0.3,0,0.6,0,0.9-0.1c0.3,0,0.7-0.1,1.1-0.2c0.4-0.1,0.8-0.2,1.1-0.4c0.3-0.2,0.6-0.3,0.7-0.3
	c0.1-0.1,0.4-0.2,0.7-0.4l0.4-0.3l0,0l0,0l0,0l0,0l0,0l0,0l0,0l0,0l0,0l0,0l0,0l0,0l0,0l0,0l-0.2,0c-0.1,0-0.2,0-0.3,0
	c-0.1,0-0.2,0-0.5-0.1c-0.2-0.1-0.4-0.1-0.7-0.2c-0.2-0.1-0.5-0.2-0.7-0.4c-0.2-0.1-0.4-0.3-0.5-0.4c-0.1-0.1-0.2-0.2-0.4-0.4
	c-0.2-0.2-0.3-0.3-0.4-0.5c-0.1-0.2-0.2-0.4-0.3-0.6l-0.2-0.3l0,0l0,0l0,0l0,0l0,0l0,0l0.2,0c0.1,0,0.4,0,0.7,0c0.3,0,0.5,0,0.6,0
	c0.1,0,0.2,0,0.2,0l0,0l0,0l0,0l0,0l0,0l0,0l0,0l0,0l0,0l0,0l0,0l0,0c0,0-0.1,0-0.1,0c-0.1,0-0.2-0.1-0.5-0.2
	c-0.3-0.1-0.5-0.2-0.7-0.4c-0.2-0.1-0.3-0.2-0.5-0.4c-0.1-0.1-0.3-0.3-0.5-0.5c-0.2-0.2-0.3-0.5-0.5-0.8c-0.1-0.3-0.2-0.6-0.3-0.8
	c-0.1-0.3-0.1-0.5-0.1-0.8l0-0.4l0,0l0,0l0,0l0,0l0,0l0,0l0.3,0.1c0.2,0.1,0.4,0.2,0.7,0.2c0.3,0.1,0.5,0.1,0.5,0.1l0.1,0h0.2l0,0
	l0,0l0,0l0,0l0,0l0,0l0,0l0,0l0,0l0,0l0,0l0,0l0,0l0,0l0,0l0,0l0,0c0,0-0.1,0-0.2-0.1C9.2,15.1,9.1,15,9,14.9
	c-0.1-0.1-0.2-0.3-0.3-0.4c-0.1-0.1-0.2-0.3-0.3-0.5c-0.1-0.2-0.2-0.4-0.3-0.6c-0.1-0.2-0.2-0.5-0.2-0.7c-0.1-0.2-0.1-0.5-0.1-0.7
	c0-0.2,0-0.5,0-0.6c0-0.2,0.1-0.4,0.1-0.6c0.1-0.2,0.1-0.4,0.2-0.7l0.2-0.4l0,0l0,0l0,0l0,0l0,0l0,0l0,0l0,0l0,0l0,0l0,0l0,0l0,0
	l0,0l0,0l0,0l0,0l0,0L8.6,10c0.2,0.2,0.4,0.4,0.6,0.6C9.5,10.9,9.6,11,9.7,11c0,0,0.1,0,0.1,0.1c0,0,0.2,0.2,0.4,0.3
	c0.2,0.2,0.5,0.4,0.9,0.6c0.4,0.2,0.7,0.5,1.2,0.7c0.4,0.2,0.9,0.4,1.4,0.6c0.5,0.2,0.8,0.3,1,0.4c0.2,0.1,0.5,0.1,1,0.2
	c0.5,0.1,0.8,0.1,1.1,0.2c0.2,0,0.4,0,0.5,0l0.1,0l0,0l0,0l0-0.2c0-0.2,0-0.4,0-0.7c0-0.3,0-0.6,0.1-0.8c0-0.2,0.1-0.5,0.2-0.7
	c0.1-0.2,0.2-0.5,0.3-0.6c0.1-0.1,0.2-0.3,0.3-0.5c0.1-0.2,0.3-0.4,0.5-0.6c0.2-0.2,0.5-0.4,0.8-0.5c0.3-0.2,0.6-0.3,0.8-0.4
	c0.2-0.1,0.4-0.1,0.6-0.2s0.2,0,0.2,0v0h1l0.4,0.1c0.2,0,0.5,0.1,0.7,0.2c0.2,0.1,0.4,0.2,0.6,0.3c0.2,0.1,0.4,0.2,0.5,0.3
	c0.1,0.1,0.3,0.2,0.4,0.3c0.1,0.1,0.3,0.1,0.6,0.1c0.2-0.1,0.5-0.1,0.8-0.2c0.3-0.1,0.6-0.2,0.9-0.3c0.3-0.1,0.5-0.2,0.5-0.2
	c0.1,0,0.1-0.1,0.1-0.1l0,0l0,0l0,0l0,0l0,0l0,0l0,0l0,0l0,0l0,0l0,0l0,0l0,0l0,0l0,0l0,0l0,0l0,0c0,0,0,0,0,0.1
	c0,0-0.1,0.2-0.2,0.4c-0.1,0.2-0.3,0.5-0.4,0.7c-0.2,0.2-0.3,0.4-0.5,0.5c-0.1,0.1-0.2,0.2-0.3,0.2c0,0-0.1,0.1-0.2,0.1l-0.1,0.1
	l0,0l0,0l0,0l0,0l0,0l0,0l0,0l0,0l0,0l0,0l0,0l0,0l0,0l0,0l0,0l0,0h0.1l0.5-0.1c0.4-0.1,0.7-0.2,1-0.3l0.5-0.2l0.1,0l0,0l0,0l0,0
	L28.2,10.9L28.2,10.9L28.2,10.9L28.2,10.9L28.2,10.9z"/>
</svg>
