<svg id="Layer_1" xmlns="http://www.w3.org/2000/svg" viewBox="0 0 35 35"><style>.st0{fill:#fff}</style><path class="st0" d="M25.8 11.2c-.2-.5-.4-.9-.8-1.2-.4-.4-.7-.6-1.2-.8-.4-.1-.9-.3-2-.4-1.1-.1-1.5-.1-4.3-.1s-3.2 0-4.3.1c-1 0-1.6.2-2 .4-.5.2-.8.4-1.2.8-.4.4-.6.7-.8 1.2-.1.4-.3.9-.4 2-.1 1.1-.1 1.5-.1 4.3s0 3.2.1 4.3c0 1 .2 1.6.4 2 .2.5.4.9.8 1.2.4.4.7.6 1.2.8.4.1.9.3 2 .4 1.1.1 1.5.1 4.3.1s3.2 0 4.3-.1c1 0 1.6-.2 2-.4.5-.2.9-.4 1.2-.8.4-.4.6-.7.8-1.2.1-.4.3-.9.4-2 .1-1.1.1-1.5.1-4.3s0-3.2-.1-4.3c-.1-1-.2-1.6-.4-2zM17.5 23c-3 0-5.5-2.4-5.5-5.5 0-3 2.4-5.5 5.5-5.5 3 0 5.5 2.4 5.5 5.5S20.5 23 17.5 23zm5.7-9.9c-.7 0-1.3-.6-1.3-1.3 0-.7.6-1.3 1.3-1.3.7 0 1.3.6 1.3 1.3 0 .7-.6 1.3-1.3 1.3z"/><path class="st0" d="M17.5 13.9c-2 0-3.6 1.6-3.6 3.6s1.6 3.6 3.6 3.6 3.6-1.6 3.6-3.6-1.6-3.6-3.6-3.6z"/><path class="st0" d="M17.5 0C7.8 0 0 7.8 0 17.5S7.8 35 17.5 35 35 27.2 35 17.5 27.2 0 17.5 0zm10.6 21.9c-.1 1.1-.2 1.9-.5 2.6-.3.7-.6 1.3-1.2 1.9-.6.6-1.2 1-1.9 1.2-.7.3-1.5.4-2.6.5-1.1.1-1.5.1-4.4.1-2.9 0-3.3 0-4.4-.1-1.1-.1-1.9-.2-2.6-.5-.7-.3-1.3-.6-1.9-1.2-.6-.6-1-1.2-1.2-1.9-.3-.7-.4-1.5-.5-2.6-.1-1.1-.1-1.5-.1-4.4 0-2.9 0-3.3.1-4.4.1-1.1.2-1.9.5-2.6.3-.7.6-1.3 1.2-1.9.6-.6 1.2-1 1.9-1.2.7-.3 1.5-.4 2.6-.5 1.1-.1 1.5-.1 4.4-.1 2.9 0 3.3 0 4.4.1 1.1.1 1.9.2 2.6.5.7.3 1.3.6 1.9 1.2.6.6 1 1.2 1.2 1.9.3.7.4 1.5.5 2.6.1 1.1.1 1.5.1 4.4 0 2.9-.1 3.3-.1 4.4z"/></svg>