<svg id="Layer_1" xmlns="http://www.w3.org/2000/svg" viewBox="0 0 35 35"><style>.st0{fill:#fff}</style><path class="st0" d="M17.5 0C7.8 0 0 7.8 0 17.5S7.8 35 17.5 35 35 27.2 35 17.5 27.2 0 17.5 0zm10.7 10.9c-.1.1-.2.2-.3.4-.2.2-.2.3-.3.3l-.1.1-.4.4-.7.7c-.3.2-.4.5-.4.8v1c0 .4-.1.7-.1 1.2-.1.4-.2.9-.3 1.4-.1.5-.3 1-.5 1.5s-.4.9-.7 1.3c-.2.4-.4.7-.6 1-.2.3-.4.5-.6.8-.2.2-.4.5-.8.8l-.5.5s-.2.1-.4.3c-.2.2-.5.4-.7.5-.3.2-.5.3-.7.5-.2.1-.5.3-.8.4-.3.2-.6.3-1 .4s-.7.3-1.1.4c-.4.1-.8.2-1.1.3-.4.1-.8.1-1.2.2l-.7.1h-1.7c-.1 0-.3 0-.8-.1s-.8-.1-1.1-.2c-.3-.1-.7-.2-1.2-.4s-1-.4-1.3-.5c-.4-.2-.6-.3-.7-.3-.1 0-.2-.1-.3-.2l-.2-.1h1.4c.3 0 .6 0 .9-.1.3 0 .7-.1 1.1-.2.4-.1.8-.2 1.1-.4.3-.2.6-.3.7-.3.1-.1.4-.2.7-.4l.4-.3h-.5c-.1 0-.2 0-.5-.1-.2-.1-.4-.1-.7-.2-.2-.1-.5-.2-.7-.4-.2-.1-.4-.3-.5-.4l-.4-.4c-.2-.2-.3-.3-.4-.5l-.3-.6-.2-.3h1.6c-.1 0-.2-.1-.5-.2s-.5-.2-.7-.4c-.2-.1-.3-.2-.5-.4l-.5-.5c-.2-.2-.3-.5-.5-.8-.1-.3-.2-.6-.3-.8-.1-.3-.1-.5-.1-.8v-.4l.3.1c.2.1.4.2.7.2.3.1.5.1.5.1h.3s-.1 0-.2-.1c.1-.7 0-.8-.1-.9-.1-.1-.2-.3-.3-.4-.1-.1-.2-.3-.3-.5l-.3-.6c-.1-.2-.2-.5-.2-.7-.1-.2-.1-.5-.1-.7v-.6c0-.2.1-.4.1-.6.1-.2.1-.4.2-.7l.2-.4.3.3.6.6c.3.3.4.4.5.4 0 0 .1 0 .1.1 0 0 .2.2.4.3.2.2.5.4.9.6.4.2.7.5 1.2.7.4.2.9.4 1.4.6.5.2.8.3 1 .4.2.1.5.1 1 .2s.8.1 1.1.2h.6v-.9c0-.3 0-.6.1-.8 0-.2.1-.5.2-.7.1-.2.2-.5.3-.6.1-.1.2-.3.3-.5.1-.2.3-.4.5-.6.2-.2.5-.4.8-.5.3-.2.6-.3.8-.4.2-.1.4-.1.6-.2s.2 0 .2 0h1l.4.1c.2 0 .5.1.7.2l.6.3c.2.1.4.2.5.3.1.1.3.2.4.3.1.1.3.1.6.1.2-.1.5-.1.8-.2l.9-.3c.3-.1.5-.2.5-.2.1 0 .1-.1.1-.1v.1l-.2.4c-.1.2-.3.5-.4.7-.2.2-.3.4-.5.5-.1.1-.2.2-.3.2 0 0-.1.1-.2.1l-.1.1h.1l.5-.1c.4-.1.7-.2 1-.3l.5-.2h.1z"/></svg>